<svg xmlns="http://www.w3.org/2000/svg" viewBox="0 0 194.17 193.74"><defs><style>.cls-1{fill:#fcf3ca;}.cls-2{fill:#8ec099;}.cls-3{fill:#41bdd7;}</style></defs><g id="Layer_2" data-name="Layer 2"><g id="Layer_1-2" data-name="Layer 1"><path class="cls-1" d="M193.74,96.61A96.87,96.87,0,1,1,96.61,0a96.87,96.87,0,0,1,97.13,96.61"/><path class="cls-2" d="M159.37,22.51l-48.08.12A17.79,17.79,0,0,0,93.57,40.45v.68a17.78,17.78,0,0,0,17.82,17.72l43.43-.11a26.14,26.14,0,0,1,26.18,26v.68a26.13,26.13,0,0,1-26,26.17l-43.43.12A17.79,17.79,0,0,0,93.8,129.55v.68A17.79,17.79,0,0,0,111.62,148l21.53-.06a26.13,26.13,0,0,1,26,23.49,96.86,96.86,0,0,0,.18-148.88"/><path class="cls-2" d="M55.67,101.06A12.68,12.68,0,0,0,68.31,88.35v-.52A12.7,12.7,0,0,0,55.6,75.18l-16.53,0A21,21,0,0,1,18,54.27,12.65,12.65,0,0,0,14.86,46,96.45,96.45,0,0,0,.43,97.13c0,1.37,0,2.73.1,4.08Z"/><path class="cls-2" d="M51.94,156.82v-.52a12.7,12.7,0,0,0-12.72-12.64l-26.72.07a97.47,97.47,0,0,0,20.77,25.82h6a12.71,12.71,0,0,0,12.65-12.72"/><path class="cls-3" d="M151,174a17.79,17.79,0,0,0-17.82-17.72l-21.52.06a26.14,26.14,0,0,1-26.18-26v-.67a26.14,26.14,0,0,1,26-26.18l43.43-.11a17.79,17.79,0,0,0,17.72-17.82v-.68a17.79,17.79,0,0,0-17.82-17.72l-43.43.12a26.14,26.14,0,0,1-26.17-26v-.68a26.13,26.13,0,0,1,26-26.17l36.54-.1A96.9,96.9,0,0,0,19.65,39a21,21,0,0,1,6.68,15.3A12.69,12.69,0,0,0,39.05,66.89l16.53,0a21,21,0,0,1,21.07,21v.52a21,21,0,0,1-21,21.07l-54.44.14A96.18,96.18,0,0,0,8.4,135.4l30.8-.08a21,21,0,0,1,21.07,21v.52A21.06,21.06,0,0,1,43.5,177.44a96.93,96.93,0,0,0,107.73-.09A25.43,25.43,0,0,1,151,174"/></g></g></svg>