<svg xmlns="http://www.w3.org/2000/svg" xmlns:xlink="http://www.w3.org/1999/xlink" viewBox="0 0 437.55 314.98"><defs><style>.cls-black-hole-blue-1,.cls-black-hole-blue-5{fill:none;}.cls-black-hole-blue-2{fill:#2c3234;}.cls-black-hole-blue-3{fill:#fff;}.cls-black-hole-blue-4{fill:#f3775b;}.cls-black-hole-blue-5{stroke:#41bdd7;stroke-miterlimit:10;stroke-width:6px;}.cls-black-hole-blue-6{fill:#41bdd7;}.cls-black-hole-blue-7{fill:#fcf3ca;}.cls-black-hole-blue-8{fill:#f9f9f9;}.cls-black-hole-blue-9{fill:#fbec87;}.cls-black-hole-blue-10{clip-path:url(#clip-path);}</style><clipPath id="clip-path"><path class="cls-black-hole-blue-1" d="M298.94,13.22c97.57,42.16,163.15,152.83,129.84,229.91s-164.45,90.42-262,48.26S-26.56,190.7,6.75,113.62,201.38-28.94,298.94,13.22Z"/></clipPath></defs><g id="Layer_2" data-name="Layer 2"><g id="Layer_1-2" data-name="Layer 1"><path class="cls-black-hole-blue-2" d="M298.94,13.22c97.57,42.16,163.15,152.83,129.84,229.91s-164.45,90.42-262,48.26S-26.56,190.7,6.75,113.62,201.38-28.94,298.94,13.22Z"/><polygon class="cls-black-hole-blue-3" points="278.65 278.34 289.96 284.08 279.02 290.51 273.28 301.82 266.86 290.88 255.54 285.13 266.49 278.71 272.23 267.4 278.65 278.34"/><path class="cls-black-hole-blue-4" d="M210.54,176.05h0a6.24,6.24,0,0,1,6.24,6.24v53.26a0,0,0,0,1,0,0H204.3a0,0,0,0,1,0,0V182.29A6.24,6.24,0,0,1,210.54,176.05Z" transform="translate(213.89 500.2) rotate(-135)"/><ellipse class="cls-black-hole-blue-5" cx="227.53" cy="140.79" rx="28.86" ry="134.66" transform="translate(-32.91 202.12) rotate(-45)"/><ellipse class="cls-black-hole-blue-6" cx="227.53" cy="140.79" rx="10.01" ry="89.43" transform="translate(-32.91 202.12) rotate(-45)"/><path class="cls-black-hole-blue-6" d="M238.22,36.08h0a6.24,6.24,0,0,1,6.24,6.24v89a0,0,0,0,1,0,0H232a0,0,0,0,1,0,0v-89A6.24,6.24,0,0,1,238.22,36.08Z" transform="translate(128.95 -143.93) rotate(45)"/><path class="cls-black-hole-blue-6" d="M274.55,109.57h0a6.24,6.24,0,0,1,6.24,6.24V174a0,0,0,0,1,0,0H268.31a0,0,0,0,1,0,0V115.81a6.24,6.24,0,0,1,6.24-6.24Z" transform="translate(180.68 -152.61) rotate(45)"/><rect class="cls-black-hole-blue-4" x="324.32" y="63.34" width="12.48" height="44.89" rx="6.24" transform="translate(157.48 -208.61) rotate(45)"/><rect class="cls-black-hole-blue-6" x="331.32" y="8.41" width="12.48" height="44.89" rx="6.24" transform="translate(120.69 -229.66) rotate(45)"/><path class="cls-black-hole-blue-6" d="M269.63,39.8h0A6.24,6.24,0,0,1,275.87,46V158a0,0,0,0,1,0,0H263.39a0,0,0,0,1,0,0V46a6.24,6.24,0,0,1,6.24-6.24Z" transform="translate(148.89 -161.7) rotate(45)"/><path class="cls-black-hole-blue-6" d="M166.86,132h0a6.24,6.24,0,0,1,6.24,6.24v39.89a0,0,0,0,1,0,0H160.62a0,0,0,0,1,0,0V138.23A6.24,6.24,0,0,1,166.86,132Z" transform="translate(175.2 382.68) rotate(-135)"/><rect class="cls-black-hole-blue-4" x="119" y="178.97" width="12.48" height="35.4" rx="6.24" transform="translate(74.73 424.3) rotate(-135)"/><path class="cls-black-hole-blue-6" d="M164.68,146.57h0a6.24,6.24,0,0,1,6.24,6.24V263.56a0,0,0,0,1,0,0H158.44a0,0,0,0,1,0,0V152.81a6.24,6.24,0,0,1,6.24-6.24Z" transform="translate(136.12 466.51) rotate(-135)"/><circle class="cls-black-hole-blue-7" cx="412.18" cy="15.86" r="3.49"/><circle class="cls-black-hole-blue-8" cx="234.11" cy="15.24" r="3.1"/><circle class="cls-black-hole-blue-8" cx="61.83" cy="187.24" r="3.37"/><circle class="cls-black-hole-blue-9" cx="405.15" cy="193.12" r="3.1"/><g class="cls-black-hole-blue-10"><polygon class="cls-black-hole-blue-9" points="55.41 63.73 51.51 93.49 45.66 64.05 15.89 60.15 45.33 54.3 49.23 24.54 55.08 53.97 84.85 57.87 55.41 63.73"/></g></g></g></svg>