<svg xmlns="http://www.w3.org/2000/svg" viewBox="0 0 546.99 446.87"><defs><style>.cls-1-donate-graphic{fill:#333;}.cls-2-donate-graphic{fill:#fbec87;}.cls-3-donate-graphic{fill:#f3775b;}.cls-4-donate-graphic{fill:#ce644c;}.cls-5-donate-graphic{fill:#41bdd7;}</style></defs><g id="Layer_2" data-name="Layer 2"><g id="Layer_1-2" data-name="Layer 1"><path class="cls-1-donate-graphic" d="M90.17,445.91c-81.12,0,62.86-130.74,62.86-222C153,100.76-6.45,0,97.34,0,240.6,0,355.09,104,353.11,227.13S233.42,445.91,90.17,445.91Z"/><polygon class="cls-2-donate-graphic" points="145.54 68.89 139.81 79.64 133.85 69.02 123.11 63.29 133.73 57.33 139.46 46.59 145.42 57.21 156.16 62.94 145.54 68.89"/><polygon class="cls-2-donate-graphic" points="297.81 203.69 294.49 223.66 291.23 203.68 271.25 200.35 291.23 197.09 294.55 177.12 297.82 197.1 317.79 200.42 297.81 203.69"/><circle class="cls-2-donate-graphic" cx="117.74" cy="389.11" r="3"/><circle class="cls-3-donate-graphic" cx="113.67" cy="210.65" r="99.9"/><path class="cls-4-donate-graphic" d="M222.33,115.51c-29.76-31.82-99.28-12.27-156.27,43.55,48.12-46.93,106.67-63.32,131.78-36.48,25.5,27.27,6.83,88.82-41.71,137.47s-108.55,66-134.06,38.73C-3,271.94,8.49,208.55,55.74,160.65c-53.67,54.41-71,131.43-41.29,163.25,30.17,32.25,115,16.13,172.36-41.42S252.49,147.75,222.33,115.51Z"/><path class="cls-3-donate-graphic" d="M41.9,280.15a99.91,99.91,0,0,1,143.54-139"/><path class="cls-3-donate-graphic" d="M213.2,114.27c-28.53-29.47-95.13-11.41-149.7,40.22C109.58,111.08,165.67,96,189.74,120.81c24.45,25.24,6.59,82.2-39.89,127.21s-104,61-128.43,35.77c-24.06-24.85-7.14-80.43,37.73-125.09C5.79,211.59-14.4,277.57,14.13,307,43.05,336.89,111.05,318,166,264.72S242.12,144.13,213.2,114.27Z"/><circle class="cls-5-donate-graphic" cx="209.37" cy="334.77" r="6.9"/><polygon class="cls-5-donate-graphic" points="209.5 327.88 452.24 186.9 209.25 341.67 209.5 327.88"/><polygon class="cls-3-donate-graphic" points="143.6 422.78 546.99 188.34 159 444.91 143.6 422.78"/><circle class="cls-3-donate-graphic" cx="152.59" cy="432.95" r="13.92"/></g></g></svg>