<svg xmlns="http://www.w3.org/2000/svg" viewBox="0 0 473.23 476.3"><defs><style>.cls-earth-mars-1{fill:#333;}.cls-earth-mars-2{fill:#fff;}.cls-earth-mars-3{fill:#8ec099;}.cls-earth-mars-4{fill:#41bdd7;}.cls-earth-mars-5{fill:#b5b5b5;}.cls-earth-mars-6{fill:#f3775b;}.cls-earth-mars-7{fill:#fbec87;}.cls-earth-mars-8{fill:#fcf3ca;}.cls-earth-mars-9{fill:none;stroke:#f9f9f9;stroke-miterlimit:10;stroke-width:2px;}.cls-earth-mars-10{fill:#f9f9f9;}</style></defs><g id="Layer_2" data-name="Layer 2"><g id="Layer_1-2" data-name="Layer 1"><path class="cls-earth-mars-1" d="M14,321.28c-37.56-98.74,2.41-191.5,98.57-228.08s315.61-39.86,353.17,58.88S392.65,416.74,296.49,453.33,51.53,420,14,321.28Z"/><circle class="cls-earth-mars-2" cx="184.17" cy="135.41" r="120.16"/><path class="cls-earth-mars-3" d="M226.3,22.52,170.16,42.66a22.06,22.06,0,0,0-13.3,28.19l.28.79A22.07,22.07,0,0,0,185.33,85L236,66.76A32.41,32.41,0,0,1,277.45,86.3l.29.79a32.42,32.42,0,0,1-19.55,41.42L207.48,146.7a22.07,22.07,0,0,0-13.31,28.19l.29.79A22.06,22.06,0,0,0,222.65,189l25.13-9A32.42,32.42,0,0,1,288,196.6,120.16,120.16,0,0,0,226.3,22.52Z"/><path class="cls-earth-mars-3" d="M137.76,157.44a15.74,15.74,0,0,0,9.49-20.11l-.22-.61a15.74,15.74,0,0,0-20.11-9.49l-19.3,6.92a26.1,26.1,0,0,1-33.34-15.74A15.66,15.66,0,0,0,67.17,110a119.65,119.65,0,0,0,4.4,65.78c.57,1.59,1.18,3.17,1.81,4.72Z"/><path class="cls-earth-mars-3" d="M156.58,224.16l-.22-.61a15.75,15.75,0,0,0-20.12-9.49L105,225.25a121,121,0,0,0,35,21.55l7-2.53A15.73,15.73,0,0,0,156.58,224.16Z"/><path class="cls-earth-mars-4" d="M279.46,203a22.06,22.06,0,0,0-28.19-13.3l-25.13,9a32.41,32.41,0,0,1-41.41-19.54l-.29-.79A32.41,32.41,0,0,1,204,137l50.71-18.2A22.07,22.07,0,0,0,268,90.58l-.29-.79a22.06,22.06,0,0,0-28.19-13.3L188.82,94.68a32.41,32.41,0,0,1-41.41-19.55l-.28-.79a32.41,32.41,0,0,1,19.54-41.41l42.67-15.31A120.2,120.2,0,0,0,69.84,99.83,26,26,0,0,1,84,114.92a15.75,15.75,0,0,0,20.12,9.5l19.3-6.92a26.09,26.09,0,0,1,33.34,15.73l.21.61a26.08,26.08,0,0,1-15.73,33.33L77.69,190a119.23,119.23,0,0,0,19.1,27.25l36-12.89a26.09,26.09,0,0,1,33.34,15.73l.22.61a26.11,26.11,0,0,1-11,31.09,120.21,120.21,0,0,0,125.86-44.89A31.21,31.21,0,0,1,279.46,203Z"/><path class="cls-earth-mars-1" d="M309.48,90.47A133.13,133.13,0,0,1,58.86,180.36s67.5,24.49,136.71-.34S309.48,90.47,309.48,90.47Z"/><circle class="cls-earth-mars-5" cx="297.72" cy="33.1" r="33.1"/><path class="cls-earth-mars-1" d="M269.74,50.78s17.73,2.07,33.18-7.69S325.7,15.42,325.7,15.42a33.1,33.1,0,0,1-56,35.36Z"/><circle class="cls-earth-mars-1" cx="280.99" cy="42.54" r="6.51"/><circle class="cls-earth-mars-1" cx="294.14" cy="22.52" r="12.99"/><circle class="cls-earth-mars-5" cx="318.31" cy="30.72" r="9.42"/><circle class="cls-earth-mars-6" cx="303.94" cy="354.98" r="121.31"/><path class="cls-earth-mars-1" d="M401.51,282.9A121.31,121.31,0,1,1,206.37,427.06h0A229.16,229.16,0,0,0,395.61,295.55Z"/><circle class="cls-earth-mars-7" cx="179.32" cy="330.94" r="34.59"/><path class="cls-earth-mars-1" d="M280.24,440.14C266.23,453.12,224,428,211,414a34.59,34.59,0,0,1,50.76-47C274.75,381,294.26,427.16,280.24,440.14Z"/><path class="cls-earth-mars-1" d="M207.14,310.38a34.59,34.59,0,1,1-55.64,41.11h0A65.33,65.33,0,0,0,205.45,314Z"/><polygon class="cls-earth-mars-8" points="444.06 187.44 453.12 192.05 444.36 197.19 439.75 206.26 434.6 197.49 425.54 192.89 434.31 187.74 438.91 178.67 444.06 187.44"/><polyline class="cls-earth-mars-9" points="5.24 293.05 13.72 291.37 17.61 261.6 23.47 291.04 53.23 294.94 23.79 300.79 19.9 330.56 14.04 301.12 7.53 300.27"/><polygon class="cls-earth-mars-10" points="7.41 301.25 6.78 299.16 7.77 299.28 7.41 301.25"/><circle class="cls-earth-mars-2" cx="352.27" cy="127.71" r="3.37"/><circle class="cls-earth-mars-10" cx="126.06" cy="394.71" r="3.1"/><path class="cls-earth-mars-8" d="M145,256.5a3.89,3.89,0,0,1,0-7.77s3.21-.14,3.21,3.73S145,256.5,145,256.5Z"/></g></g></svg>