<svg xmlns="http://www.w3.org/2000/svg" viewBox="0 0 309.52 193.71"><defs><style>.earth-cls-1{fill:none;}.earth-cls-2{fill:#fcf3ca;}.earth-cls-3{fill:#8ec099;}</style></defs><g id="Layer_2" data-name="Layer 2"><g id="Layer_1-2" data-name="Layer 1"><rect class="earth-cls-1" width="309.43" height="193.71"/><path class="earth-cls-2" d="M111.85,135.54H52.37c-9.16,0-17,10.42-17,20.62v.52c0,10.16,7.07,20.59,16.83,20.59l.15-.08v.08H112c9.41,0,16.82-10.43,16.83-20.59v-.52C128.8,146,120.31,135.54,111.85,135.54Z"/><path class="earth-cls-2" d="M113.36,66.71H98.29C91.92,66.7,86.74,61,86.74,54a22.44,22.44,0,0,0-.27-3.5,19.15,19.15,0,0,0-5.77-11.8h0a16.08,16.08,0,0,0-11.07-4.52c-.29,0-.56,0-.84.05h0l-49.62,0C8.6,34.22,0,43.64,0,55.23v.52c0,11.58,8.59,21,19.15,21H34.22c6.37,0,11.55,5.7,11.55,12.69a22,22,0,0,0,6,15.31l0,0c2.58,2.82,6.29,4.52,11.29,4.52.2,0,.39,0,.59,0h0l49.62,0c10.56,0,19.16-9.42,19.16-21v-.52C132.51,76.14,123.92,66.71,113.36,66.71Z"/><path class="earth-cls-3" d="M113,74.78H97.9c-10.56,0-19.15-9.43-19.15-21a13.55,13.55,0,0,0-1-5.2,9,9,0,0,0-1.59-2.81l-.21-.28v0a8,8,0,0,0-6-2.64H69.8l-50.25,0C13.18,42.82,8,48.5,8,55.5V56C8,63,13.17,68.7,19.54,68.7H34.61c10.56,0,19.15,9.44,19.15,21a13.54,13.54,0,0,0,1.8,6.77c.11.19.22.38.34.56l.21.3a1.43,1.43,0,0,0,.14.2c.11.16.22.32.34.47l0,0a7.55,7.55,0,0,0,5.7,2.67l.4,0h0l50.25,0c6.38,0,11.56-5.68,11.56-12.68v-.52C124.53,80.47,119.34,74.78,113,74.78Zm-49.5,8.41a1.49,1.49,0,0,0,0,.21H63.4A1.59,1.59,0,0,1,63.47,83.19Z"/><path class="earth-cls-3" d="M107.13,143.46H57.06a12.69,12.69,0,0,0-12.68,12.69v.52a12.69,12.69,0,0,0,12.68,12.67h50.06a12.69,12.69,0,0,0,12.69-12.67v-.52A12.7,12.7,0,0,0,107.13,143.46Z"/><path class="earth-cls-2" d="M194.18,164.15a25.8,25.8,0,0,1-25.76-25.78v-.67a25.8,25.8,0,0,1,25.77-25.77l22,0a18.14,18.14,0,0,0,18.11-18.1v-.69a18.13,18.13,0,0,0-18.1-18.1H179.77A25.79,25.79,0,0,1,154,49.27V48.6a25.81,25.81,0,0,1,25.77-25.77h57.37a25.81,25.81,0,0,1,25.78,25.76v.62l.21,14.49c0,12.5,10.92,13.47,14.27,13.47h7.88a24.45,24.45,0,0,1,16.85,7,23.86,23.86,0,0,1,7.37,17.18v.6c0,13.35-10.43,24.2-23.24,24.2l-8.77,0c-5.64,0-12.91,5.68-12.91,11.7,0,15.24-9.79,26.3-23.27,26.3Z"/><path class="earth-cls-3" d="M301.52,101.38c0-8.93-7.83-16.2-16.23-16.2h-7.88c-9,0-22.27-5-22.27-21.47l-.21-14.43v-.68a17.79,17.79,0,0,0-17.78-17.76H179.79A17.78,17.78,0,0,0,162,48.59v.68a17.8,17.8,0,0,0,17.76,17.78h36.44a26.14,26.14,0,0,1,26.1,26.11v.68A26.15,26.15,0,0,1,216.19,120l-22,0a17.79,17.79,0,0,0-17.77,17.77v.67a17.78,17.78,0,0,0,17.76,17.78h47.14c8.82,0,15.28-7.3,15.28-18.3s11.37-19.7,20.92-19.7l8.76,0c8.4,0,15.23-7.26,15.24-16.19Z"/></g></g></svg>