<svg xmlns="http://www.w3.org/2000/svg" viewBox="0 0 1600 427.12"><defs><style>.footer-bg-cls-1{fill:#2c3234;}.footer-bg-cls-2,.footer-bg-cls-6{fill:#fff;}.footer-bg-cls-3{fill:#fcf3ca;}.footer-bg-cls-4,.cls-7{fill:none;}.footer-bg-cls-4,.footer-bg-cls-6{stroke:#fbec87;}.footer-bg-cls-4,.footer-bg-cls-6,.cls-7{stroke-miterlimit:10;}.footer-bg-cls-5{fill:#fbec87;}.cls-7{stroke:#fcf3ca;}</style></defs><g id="Layer_2" data-name="Layer 2"><g id="Layer_1-2" data-name="Layer 1"><path class="footer-bg-cls-1" d="M1600,312C1441,134.07,1120.86,20.83,857.41,2.9,550.33-18,147.21,73.69,0,285.39V427.12H1600Z"/><circle class="footer-bg-cls-2" cx="1283.23" cy="222.78" r="2"/><circle class="footer-bg-cls-2" cx="406.21" cy="247.58" r="2.92"/><circle class="footer-bg-cls-3" cx="51.11" cy="325.68" r="2.43"/><polygon class="footer-bg-cls-4" points="167.58 359.5 195.97 364.19 167.57 368.85 162.88 397.24 158.22 368.85 129.83 364.15 158.22 359.49 162.92 331.1 167.58 359.5"/><circle class="footer-bg-cls-2" cx="249.79" cy="197.32" r="1.75"/><circle class="footer-bg-cls-5" cx="324.42" cy="362.21" r="3.93"/><polygon class="footer-bg-cls-3" points="1023.22 100.97 1004.55 97.75 1023.27 94.81 1026.5 76.14 1029.43 94.86 1048.1 98.09 1029.38 101.02 1026.15 119.69 1023.22 100.97"/><circle class="footer-bg-cls-2" cx="406.72" cy="88.4" r="2.92"/><circle class="footer-bg-cls-2" cx="651.32" cy="293.64" r="2.92"/><circle class="footer-bg-cls-2" cx="923.17" cy="151.53" r="2.92"/><circle class="footer-bg-cls-2" cx="514.37" cy="222.78" r="2"/><circle class="footer-bg-cls-6" cx="786.15" cy="254.73" r="2.92"/><circle class="footer-bg-cls-5" cx="906.62" cy="370.38" r="3.93"/><circle class="footer-bg-cls-3" cx="747.5" cy="51.43" r="1.46"/><circle class="footer-bg-cls-2" cx="700.51" cy="124.36" r="2.92"/><polygon class="cls-7" points="1405.11 191.5 1381.34 187.57 1405.12 183.67 1409.04 159.91 1412.94 183.68 1436.71 187.61 1412.94 191.51 1409.01 215.27 1405.11 191.5"/><circle class="footer-bg-cls-2" cx="1227.88" cy="331.99" r="2.92"/><circle class="footer-bg-cls-2" cx="1270.76" cy="121.44" r="1.75"/><circle class="footer-bg-cls-2" cx="1051.02" cy="394.85" r="2.92"/><circle class="footer-bg-cls-2" cx="1335.38" cy="386.03" r="2"/><circle class="footer-bg-cls-6" cx="1473.45" cy="400.69" r="2.92"/><circle class="footer-bg-cls-5" cx="1121.68" cy="187.59" r="3.93"/><polygon class="footer-bg-cls-5" points="515.8 116.31 536.47 119.88 515.75 123.13 512.17 143.8 508.93 123.08 488.26 119.5 508.98 116.26 512.56 95.58 515.8 116.31"/></g></g></svg>