<svg xmlns="http://www.w3.org/2000/svg" viewBox="0 0 367.38 282.46"><defs><style>.footer-amp-cls-1{fill:#2c3234;}.footer-amp-cls-2{fill:#fbec87;}</style></defs><g id="Layer_2" data-name="Layer 2"><g id="Layer_1-2" data-name="Layer 1"><path class="footer-amp-cls-1" d="M367.38,212.23c0,42.75-40.68,70.23-96,70.23-29.23,0-51-6.49-67.16-16.41-26.07,10.68-55.7,16.41-85.72,16.41C34.37,282.46,0,232.46,0,194.67c0-40.84,24.49-75.58,67.55-90.85v-3c-14.61-9.54-22.91-24-22.91-43.52C44.64,19.09,77,0,124.44,0c47.8,0,80.19,19.09,80.19,57.25,0,26.34-15.41,43.52-40.29,51.53h.79v3.44c37.53,16.41,55.7,49.62,69.92,79.39C242.16,179,246.5,163.37,246.5,145c0-25.95-20.14-34.72-35.16-38.54l4.35-17.18H322.75l4.74,17.18c-15,3.82-35.16,14.88-35.16,39.69,0,35.12-13.83,63.75-35.95,85.89,7.9,10.68,17,17.55,29.23,17.55,12.64,0,24.1-7.25,24.1-20.23,0-12.21-13-19.85-13-35.88,0-14.5,11.86-25.57,30.42-25.57,27.26,0,40.29,20.23,40.29,44.28m-229.11,29a133.32,133.32,0,0,0,36.73-5C151.3,200,147,151.92,122.07,129,101.13,144.28,83,165.66,83,191.23c0,19.47,15.8,50,55.31,50M99.94,59.54c0,20.62,10.27,30.92,24.5,30.92,14.61,0,24.49-10.3,24.49-30.92s-9.88-31.29-24.49-31.29c-14.23,0-24.5,10.68-24.5,31.29"/><polygon class="footer-amp-cls-2" points="172.04 42.03 167.81 49.85 163.5 42.07 155.68 37.83 163.47 33.53 167.7 25.7 172.01 33.49 179.83 37.73 172.04 42.03"/><polygon class="footer-amp-cls-2" points="259.4 229.35 264.99 200.3 269.01 229.61 298.06 235.21 268.75 239.22 263.15 268.28 259.14 238.97 230.09 233.37 259.4 229.35"/></g></g></svg>