<svg xmlns="http://www.w3.org/2000/svg" viewBox="0 0 300.98 312.24"><defs><style>.footer-rocket-cls-1{fill:#41bdd7;}.footer-rocket-cls-2{fill:#f3775b;}.footer-rocket-cls-3{fill:#2b233f;}</style></defs><g id="Layer_2" data-name="Layer 2"><g id="Layer_1-2" data-name="Layer 1"><polygon class="footer-rocket-cls-1" points="192.35 120.05 206.63 130.72 87.13 237.8 0 312.25 74.45 225.12 181.58 105.85 192.35 120.05"/><path class="footer-rocket-cls-2" d="M299.34,3.06,301,0c-20.06,4.4-37.61,15.4-51.76,30.27L190.7,93.44A53.31,53.31,0,0,0,154.24,111l-42.37,46.36,35.24-16.8-.09.09,23.55.21,1.17,1.11Z"/><path class="footer-rocket-cls-2" d="M173.11,163l-14.5,37.58,43-45.8a53.29,53.29,0,0,0,14.66-37.94Z"/><path class="footer-rocket-cls-3" d="M301,0c-2.86,20.34-12.48,38.68-26.22,53.92L172.58,164.27l-2-23.46Z"/><path class="footer-rocket-cls-3" d="M241.56,73.24a6.37,6.37,0,1,1-.23-9,6.37,6.37,0,0,1,.23,9"/><path class="footer-rocket-cls-3" d="M251.41,62.89a6.37,6.37,0,1,1-.22-9,6.38,6.38,0,0,1,.22,9"/><path class="footer-rocket-cls-3" d="M261.27,52.53a6.37,6.37,0,1,1-.23-9,6.36,6.36,0,0,1,.23,9"/></g></g></svg>