<svg xmlns="http://www.w3.org/2000/svg" viewBox="0 0 16 16"><defs><style></style></defs><g id="Layer_2" data-name="Layer 2"><g id="Layer_1-2" data-name="Layer 1"><path d="M16,12v3a1,1,0,0,1-1,1H1a1,1,0,0,1-1-1V12a1,1,0,0,1,1-1H2a7.8,7.8,0,0,0,2.28,2h-2a.27.27,0,0,0-.3.25v.5a.27.27,0,0,0,.3.25H13.7a.28.28,0,0,0,.3-.25v-.5a.28.28,0,0,0-.3-.25h-2A7.55,7.55,0,0,0,14,11h1A1,1,0,0,1,16,12ZM1.5,6.5A6.5,6.5,0,1,1,8,13,6.5,6.5,0,0,1,1.5,6.5ZM5.46,5A2,2,0,0,0,6.83,6.87l1.94.59A.56.56,0,0,1,9.15,8a.55.55,0,0,1-.51.57H7.42a1.1,1.1,0,0,1-.55-.16.35.35,0,0,0-.44,0l-.51.48a.36.36,0,0,0,0,.54A2.43,2.43,0,0,0,7.3,10v.53a.52.52,0,0,0,.52.52h.35a.52.52,0,0,0,.52-.52V10a1.93,1.93,0,0,0,1.84-2A2,2,0,0,0,9.17,6.13L7.22,5.54A.56.56,0,0,1,6.84,5a.55.55,0,0,1,.51-.57H8.57a1,1,0,0,1,.55.16.35.35,0,0,0,.44,0l.51-.48a.35.35,0,0,0,0-.54,2.51,2.51,0,0,0-1.34-.48V2.52A.52.52,0,0,0,8.17,2H7.83a.52.52,0,0,0-.52.52V3A1.93,1.93,0,0,0,5.46,5Z"/></g></g></svg>