<svg xmlns="http://www.w3.org/2000/svg" viewBox="0 0 129.47 46.06"><defs><style>.cls-1{fill:#f3775b;}.cls-2{fill:#41bdd7;}.cls-3{fill:#fbec87;}</style></defs><g id="Layer_2" data-name="Layer 2"><g id="Layer_1-2" data-name="Layer 1"><path class="cls-1" d="M25.32,5.38V4.84h18v.54c-1.91.79-3.72,2.54-3.72,6.53V26.24C39.39,37,31.75,42.86,21.45,42.86S3.61,37,3.61,26.24V11.91C3.61,8.3,2.07,6.28,0,5.38V4.84H18v.48c-2.29.8-3.77,2.76-3.77,6.59V26.29c0,4.57,2.17,8.07,7.22,8.07s7.43-3.5,7.43-8.07c0,0-1.38-20.07-3.56-20.91"/><path class="cls-2" d="M111.52,42v-.53c2.5-1.07,3.67-2.92,3.67-6.48V21.25L105.47,35,95.65,21.36V35c0,3.56,1.17,5.41,3.66,6.48V42H81.37v-.53C83.86,40.41,85,38.56,85,35V11.85c0-3.55-1.17-5.41-3.66-6.47V4.84l14.28.06,9.82,14.49L115.19,4.9l14.28-.06v.54c-2.5,1.06-3.66,2.92-3.66,6.47V35c0,3.56,1.16,5.41,3.66,6.48V42Z"/><path class="cls-3" d="M84.52,2.71C81-.91,74.31-.65,67.41,2l-.74-.16-.24,0a26.15,26.15,0,0,0-2.68-.32h-.3c-.45,0-.9,0-1.36,0-9,0-17.24,4.63-19.82,13.45a21.23,21.23,0,0,0-.83,6h0c0,.41,0,.82,0,1.22,0,.09,0,.18,0,.27,0,.37.06.73.1,1.09a.17.17,0,0,1,0,.07,19.1,19.1,0,0,0,.62,3l0-.15c-2.86,6.78-2.87,13,.64,16.66,6.06,6.25,20.31,2.28,31.82-8.87S90.58,9,84.52,2.71ZM79.6,4.08c2.17,2.24,2.74,5.67,2,9.59a17.36,17.36,0,0,0-5-7.25h0l-.35-.29-.09-.07A19.71,19.71,0,0,0,74,4.6l-.06,0c-.34-.2-.7-.4-1.06-.59l-.07,0a20.52,20.52,0,0,0-2.34-1l-.1,0c-.7-.26-1.42-.47-2.14-.66C73,1,77.1,1.5,79.6,4.08ZM71.24,30.73c-9.73,9.43-21.78,12.79-26.9,7.5C42,35.82,41.51,32,42.58,27.74l0-.12a1.34,1.34,0,0,1,.07.18c0,.15.11.3.17.45s.13.34.2.5l.15.34.18.39.18.34c.06.13.12.25.19.37s.12.23.19.34l.19.34.21.34.21.32a4,4,0,0,0,.23.34l.21.3.25.33.21.28.27.33.21.26c.08.08.14.16.22.25h0a19,19,0,0,0,1.56,1.55A9.36,9.36,0,0,1,45.23,29a8.09,8.09,0,0,1,5.18-7.7,7.07,7.07,0,0,1-3.78-6.44c.19-5.36,4.8-8.72,11.1-8.72,6.58,0,10.31,3.26,10.13,7.37a4.7,4.7,0,0,1-5,4.81c-2,0-3.31-1.22-3.31-2.66a1.4,1.4,0,0,0,1.49-1.36c0-1.16-1.31-2.14-3.22-2.14a3.36,3.36,0,0,0-3.59,3.54c0,2.24,2.66,3.69,5.46,3.69v2.56a5,5,0,0,0-4.67,5c-.14,3.73,3.13,6.81,7.79,6.81,5.46,0,8.07-3.41,8.07-6.72a7.2,7.2,0,0,0-.74-3.17c-.94.42-1.87.79-2.85,1.12a1.2,1.2,0,0,0-.93,1.16c0,.56.47.94,1.26.94a3.52,3.52,0,0,1-3.78,3.31c-2.94,0-4.39-2-4.29-3.92,0-2.38,2-3.83,5.22-5.51,3.55-1.86,5.46-4.19,5.55-7.55a7.67,7.67,0,0,0-1.58-5A5.79,5.79,0,0,1,73,6.91c3.17,0,6,2.43,6,6.63,0,3.59-2.09,6.29-5.13,8.3A8.59,8.59,0,0,1,76,25.31,43.89,43.89,0,0,1,71.24,30.73Z"/></g></g></svg>