<svg xmlns="http://www.w3.org/2000/svg" viewBox="0 0 617.13 178.68"><defs><style>.logo-full-cls-1{fill:#fbec87;}.logo-full-cls-2{fill:#f3775b;}.logo-full-cls-3{fill:#41bdd7;}</style></defs><g id="Layer_2" data-name="Layer 2"><g id="Layer_1-2" data-name="Layer 1"><path class="logo-full-cls-1" d="M328.35,87.91c-7.34-7.58-21.36-7-35.82-1.45L291,86.14l-.49-.09a52.42,52.42,0,0,0-5.63-.66l-.62,0c-.95,0-1.9-.08-2.85-.08-18.78,0-36.1,9.69-41.5,28.17a44.88,44.88,0,0,0-1.74,12.63h0c0,.86,0,1.7.08,2.54l0,.57c.06.77.13,1.54.22,2.29,0,.05,0,.09,0,.14a40.88,40.88,0,0,0,1.29,6.32l-.1-.33c-6,14.21-6,27.3,1.34,34.88,12.69,13.1,42.52,4.79,66.64-18.57S341,101,328.35,87.91Zm-10.29,2.87c4.54,4.69,5.74,11.87,4.09,20.09a36.71,36.71,0,0,0-10.56-15.19l0,0c-.24-.21-.5-.4-.75-.61l-.18-.15a40.92,40.92,0,0,0-4.33-3l-.12-.07c-.73-.44-1.47-.85-2.23-1.25l-.13-.07A42.37,42.37,0,0,0,299,88.32l-.21-.08c-1.46-.53-3-1-4.48-1.37C304.15,84.29,312.83,85.38,318.06,90.78Zm-17.5,55.81c-20.39,19.74-45.61,26.77-56.34,15.69-4.88-5-5.92-13-3.68-22l-.08-.26c0,.14.09.27.14.4l.36.93c.14.35.27.71.42,1.05s.21.47.32.7.25.55.38.83.24.48.36.72l.39.76.41.72c.13.24.27.47.41.71s.29.48.44.71l.43.68.47.7.45.63.51.7.46.58c.18.24.37.47.56.7l.45.53.44.52h0a38.34,38.34,0,0,0,3.26,3.24,19.63,19.63,0,0,1-5-12.94,16.94,16.94,0,0,1,10.84-16.12A14.78,14.78,0,0,1,249,113.32c.39-11.23,10.06-18.27,23.25-18.27,13.77,0,21.58,6.84,21.19,15.44-.29,5.76-3.91,10.06-10.35,10.06-4.1,0-6.94-2.54-6.94-5.57a2.91,2.91,0,0,0,3.13-2.83c0-2.45-2.74-4.5-6.74-4.5-4.3,0-7.52,2.74-7.52,7.43s5.57,7.71,11.43,7.71v5.38c-4.11,0-9.48,3.51-9.77,10.45-.29,7.81,6.54,14.26,16.31,14.26,11.43,0,16.9-7.13,16.9-14.07a15.16,15.16,0,0,0-1.56-6.64c-2,.88-3.91,1.66-6,2.35a2.52,2.52,0,0,0-2,2.44c0,1.17,1,1.95,2.64,1.95-.19,3.32-2.64,6.94-7.91,6.94-6.15,0-9.18-4.2-9-8.21.1-5,4.3-8,10.94-11.53,7.43-3.9,11.43-8.79,11.63-15.82.1-4.88-1.86-9.08-3.32-10.55,1.27-1.47,4.49-3,8.79-3,6.64,0,12.6,5.08,12.6,13.87,0,7.52-4.4,13.19-10.75,17.39a18.11,18.11,0,0,1,4.47,7.27A92.84,92.84,0,0,1,300.56,146.59Z"/><path class="logo-full-cls-2" d="M53,2.78V1.67H90.71V2.78c-4,1.67-7.78,5.33-7.78,13.67v30c-.45,22.45-16.46,34.79-38,34.79S7.56,69,7.56,46.47v-30C7.56,8.89,4.34,4.67,0,2.78V1.67H37.68v1c-4.78,1.67-7.89,5.78-7.89,13.78V46.58c0,9.56,4.56,16.89,15.12,16.89s15.56-7.33,15.56-16.89c0,0-2.89-42-7.45-43.8"/><path class="logo-full-cls-2" d="M146.06,79.48V78.37c4.33-1.45,7.67-4.67,7.67-9.12,0-9.67-10.12-21.67-30.9-40.24v35.8c0,7.44,2.44,11.34,7.67,13.56v1.11H92.93V78.37c5.22-2.22,7.67-6.12,7.67-13.56V16.34c0-7.45-2.45-11.34-7.67-13.56V1.67l29.9.11,30.9,31.79V16.34c0-7.45-2.44-11.34-7.67-13.56V1.67h37.57V2.78C178.41,5,176,8.89,176,16.34V64.81c0,7.44,2.45,11.34,7.67,13.56v1.11Z"/><path class="logo-full-cls-2" d="M185.85,79.48V78.37c5.22-2.22,7.67-6.12,7.67-13.56V16.34c0-7.45-2.45-11.34-7.67-13.56V1.67h37.57V2.78c-5.22,2.22-7.67,6.11-7.67,13.56V64.81c0,7.44,2.45,11.34,7.67,13.56v1.11Z"/><path class="logo-full-cls-2" d="M251.65,79.48V78.37c1.45-1.11,2.67-3.78.67-9L227.87,15c-2.45-5.45-4.56-9.45-7.23-12.23V1.67h38.79V2.78c-4,2.67-6.89,9.78-3.66,18.79L267,52.91l12.12-31.34c3.45-8.9.56-16.12-3.67-18.79V1.67h36V2.78c-3.34,3.78-5.34,8.22-8.67,15.34L279.22,68.59c-2.44,5.78-1.22,8.56.33,9.78v1.11Z"/><path class="logo-full-cls-2" d="M308.67,79.48V78.37c4.9-1.56,7.67-6.34,7.67-13.56V16.45c0-7.45-2.44-11.89-7.67-13.67V1.67h53c11.11,0,13.56-1.56,13.56-1.56l4.78,23-1,.34c-2.22-1.78-5.78-4-14-4H338.58V36.57c2.55-5.11,8.44-8.67,16.22-8.67,10.34,0,17.35,5.56,17.35,13.56,0,6.67-5.67,10.12-11.34,10.12,0-3.11-2.34-6.23-8-6.23-7.55,0-14.22,6.56-14.22,16.34h27.56a20.51,20.51,0,0,0,15-5.89l.89.45L377.48,81.7s-3.44-2.22-14.67-2.22Z"/><path class="logo-full-cls-2" d="M383.15,79.48V78.37c5.22-2.22,7.67-6.12,7.67-13.56V16.34c0-6.56-2-11.11-7.67-13.56V1.67h49.24c21.9,0,33.35,11.56,33.35,26.34,0,12.9-9.89,23-24.9,23a15.7,15.7,0,0,1-2.22-.11c4.78,3.11,9.11,5.89,14.22,5.89a6.67,6.67,0,0,0,5.9-3.33,12.25,12.25,0,0,1,7.33,11.23c0,8.78-5.56,16.34-17.67,16.34C430,81,425.61,54,413.05,51.13V64.81c0,7.44,2.45,11.34,7.67,13.56v1.11Zm29.9-60V37.24h19c6.89,0,11.45-3,11.45-8.67,0-6.23-4.56-9.12-11.45-9.12Z"/><path class="logo-full-cls-2" d="M535.1,27.68c-7.67-6.78-22.57-11.34-32.79-11.34-8.45,0-10.68,2.56-10.68,6,0,4.12,5.56,5.56,22.12,8.23,19.79,3.22,26.68,11.89,26.68,23.79,0,14.67-10.45,27-34.9,27-23.79,0-35-11.78-35-22.79,0-9.78,7.9-11.78,7.9-11.78,1.89,8.89,13.67,16.45,29.68,16.45,8.33,0,11.67-2,11.67-6.22,0-5.9-7.34-7.12-24-9.9-18-3-25-11-25-22.79,0-13.78,13-24.34,31.12-24.34,13.45,0,20.79,3.22,25,3.22a9.45,9.45,0,0,0,6-1.89l3.22,25.79Z"/><path class="logo-full-cls-2" d="M543.76,79.48V78.37c4.89-1.56,7.67-6.34,7.67-13.56V16.45c0-7.45-2.44-11.89-7.67-13.67V1.67h53c11.11,0,13.56-1.56,13.56-1.56l4.78,23-1,.34c-2.23-1.78-5.78-4-14-4H573.67V36.57c2.55-5.11,8.44-8.67,16.22-8.67,10.34,0,17.35,5.56,17.35,13.56,0,6.67-5.67,10.12-11.34,10.12,0-3.11-2.34-6.23-8-6.23-7.56,0-14.22,6.56-14.22,16.34h27.56a20.51,20.51,0,0,0,15-5.89l.89.45L612.57,81.7s-3.44-2.22-14.67-2.22Z"/><path class="logo-full-cls-3" d="M197.25,164.86v-1.11c5.22-2.22,7.67-6.12,7.67-13.56V121.4l-20.34,28.68L164,121.62v28.57c0,7.44,2.45,11.34,7.67,13.56v1.11H134.11v-1.11c5.22-2.22,7.67-6.12,7.67-13.56V101.72c0-7.45-2.45-11.34-7.67-13.56V87.05l29.9.11,20.57,30.35,20.34-30.35,29.9-.11v1.11c-5.22,2.22-7.67,6.11-7.67,13.56v48.47c0,7.44,2.45,11.34,7.67,13.56v1.11Z"/><path class="logo-full-cls-3" d="M328.07,164.86v-1.11c5.23-2.22,7.67-6.11,7.67-13.56V101.72c0-6.56-2-11.11-7.67-13.56V87.05h49.25c21.9,0,33.35,11.56,33.35,26.35,0,12.89-9.9,23-24.9,23a15.9,15.9,0,0,1-2.23-.11c4.78,3.11,9.12,5.9,14.23,5.9a6.64,6.64,0,0,0,5.89-3.34A12.25,12.25,0,0,1,411,150.08c0,8.78-5.56,16.34-17.68,16.34-18.45,0-22.78-27-35.34-29.9v13.67c0,7.45,2.44,11.34,7.67,13.56v1.11Zm29.91-60v17.79h19c6.9,0,11.45-3,11.45-8.67,0-6.22-4.55-9.12-11.45-9.12Z"/><path class="logo-full-cls-3" d="M415.44,164.86v-1.11c4.89-1.56,7.67-6.34,7.67-13.56V101.83c0-7.45-2.45-11.89-7.67-13.67V87.05h53c11.12,0,13.56-1.56,13.56-1.56l4.78,23-1,.34c-2.22-1.78-5.78-4-14-4H445.34V122c2.56-5.11,8.45-8.67,16.23-8.67,10.34,0,17.34,5.56,17.34,13.56,0,6.67-5.67,10.12-11.34,10.12,0-3.11-2.33-6.23-8-6.23-7.56,0-14.23,6.56-14.23,16.35h27.57a20.53,20.53,0,0,0,15-5.9l.88.45-4.55,25.46s-3.45-2.23-14.68-2.23Z"/></g></g></svg>