<svg xmlns="http://www.w3.org/2000/svg" viewBox="0 0 256.89 434.07"><defs><style>.cls-1,.cls-6{fill:none;}.cls-1{stroke:#fcf3ca;}.cls-1,.cls-4,.cls-6{stroke-miterlimit:10;}.cls-2{fill:#fcf3ca;}.cls-3,.cls-4{fill:#fff;}.cls-4,.cls-6{stroke:#fbec87;}.cls-5{fill:#fbec87;}</style></defs><g id="Layer_2" data-name="Layer 2"><g id="Layer_1-2" data-name="Layer 1"><polygon class="cls-1" points="214.14 316.42 192.83 312.9 214.14 309.4 217.66 288.1 221.16 309.4 242.46 312.93 221.16 316.43 217.63 337.73 214.14 316.42"/><polygon class="cls-2" points="19.91 251.17 16.08 258.2 12.22 251.18 5.19 247.35 12.21 243.49 16.04 236.46 19.9 243.48 26.93 247.31 19.91 251.17"/><circle class="cls-3" cx="255.26" cy="257.51" r="1.63"/><circle class="cls-3" cx="116.47" cy="393.57" r="1.63"/><circle class="cls-3" cx="140.42" cy="275.97" r="1.63"/><circle class="cls-3" cx="255.26" cy="24.76" r="1.63"/><circle class="cls-3" cx="17.69" cy="428.68" r="1.63"/><circle class="cls-3" cx="176.51" cy="423.75" r="1.12"/><circle class="cls-4" cx="253.63" cy="431.94" r="1.63"/><circle class="cls-5" cx="57.16" cy="312.91" r="2.19"/><circle class="cls-2" cx="56.92" cy="68.38" r="1.36"/><polygon class="cls-6" points="121.97 87.27 137.83 89.89 121.97 92.5 119.35 108.35 116.75 92.49 100.89 89.87 116.75 87.27 119.37 71.41 121.97 87.27"/><polygon class="cls-5" points="242.17 163.68 246 156.65 249.85 163.67 256.89 167.5 249.87 171.36 246.04 178.39 242.18 171.37 235.15 167.54 242.17 163.68"/><circle class="cls-3" cx="3.26" cy="144.21" r="1.63"/><circle class="cls-3" cx="142.05" cy="1.63" r="1.63"/><circle class="cls-3" cx="171.15" cy="200.18" r="1.63"/><circle class="cls-5" cx="209.58" cy="88.79" r="2.19"/><circle class="cls-5" cx="72.09" cy="181.22" r="2.19"/><polygon class="cls-2" points="11.55 25.02 0 23.02 11.58 21.21 13.57 9.66 15.38 21.24 26.93 23.24 15.36 25.05 13.36 36.6 11.55 25.02"/></g></g></svg>