<svg xmlns="http://www.w3.org/2000/svg" viewBox="0 0 256.89 603.93"><defs><style>.btn-stars-3-cls-1,.btn-stars-3-cls-6{fill:none;}.btn-stars-3-cls-1{stroke:#fcf3ca;}.btn-stars-3-cls-1,.btn-stars-3-cls-4,.btn-stars-3-cls-6{stroke-miterlimit:10;}.btn-stars-3-cls-2{fill:#fcf3ca;}.btn-stars-3-cls-3,.btn-stars-3-cls-4{fill:#fff;}.btn-stars-3-cls-4,.btn-stars-3-cls-6{stroke:#fbec87;}.btn-stars-3-cls-5{fill:#fbec87;}</style></defs><g id="Layer_2" data-name="Layer 2"><g id="Layer_1-2" data-name="Layer 1"><polygon class="btn-stars-3-cls-1" points="213.83 484.96 200.56 482.76 213.83 480.58 216.03 467.31 218.2 480.59 231.48 482.78 218.2 484.96 216.01 498.23 213.83 484.96"/><polygon class="btn-stars-3-cls-2" points="18.28 421.02 14.45 428.06 10.59 421.04 3.56 417.21 10.58 413.35 14.41 406.32 18.27 413.34 25.3 417.17 18.28 421.02"/><circle class="btn-stars-3-cls-3" cx="253.63" cy="427.37" r="1.63"/><circle class="btn-stars-3-cls-3" cx="114.84" cy="563.43" r="1.63"/><circle class="btn-stars-3-cls-3" cx="138.79" cy="445.83" r="1.63"/><circle class="btn-stars-3-cls-3" cx="1.63" cy="86.67" r="1.63"/><circle class="btn-stars-3-cls-3" cx="16.06" cy="598.54" r="1.63"/><circle class="btn-stars-3-cls-3" cx="174.88" cy="593.61" r="1.12"/><circle class="btn-stars-3-cls-4" cx="252" cy="601.8" r="1.63"/><circle class="btn-stars-3-cls-5" cx="55.53" cy="482.77" r="2.19"/><circle class="btn-stars-3-cls-3" cx="87.37" cy="204.35" r="1.63"/><circle class="btn-stars-3-cls-3" cx="239.2" cy="124.98" r="1.63"/><circle class="btn-stars-3-cls-3" cx="10.87" cy="164.77" r="1.12"/><circle class="btn-stars-3-cls-4" cx="162.67" cy="182.61" r="1.63"/><circle class="btn-stars-3-cls-5" cx="229.96" cy="247.21" r="2.19"/><circle class="btn-stars-3-cls-2" cx="199.97" cy="43.05" r="1.36"/><polygon class="btn-stars-3-cls-6" points="134.92 24.16 119.06 21.54 134.92 18.93 137.54 3.08 140.14 18.94 156 21.56 140.14 24.16 137.52 40.02 134.92 24.16"/><polygon class="btn-stars-3-cls-5" points="240.53 333.54 244.37 326.51 248.22 333.53 255.26 337.36 248.24 341.22 244.41 348.25 240.55 341.23 233.51 337.4 240.53 333.54"/><circle class="btn-stars-3-cls-3" cx="1.63" cy="314.06" r="1.63"/><circle class="btn-stars-3-cls-3" cx="114.84" cy="109.8" r="1.63"/><circle class="btn-stars-3-cls-3" cx="169.52" cy="370.04" r="1.63"/><circle class="btn-stars-3-cls-5" cx="47.31" cy="22.64" r="2.19"/><circle class="btn-stars-3-cls-5" cx="70.46" cy="351.08" r="2.19"/><polygon class="btn-stars-3-cls-2" points="245.34 86.41 256.89 88.41 245.31 90.22 243.32 101.77 241.51 90.19 229.96 88.19 241.54 86.38 243.53 74.83 245.34 86.41"/><polygon class="btn-stars-3-cls-5" points="29.79 243.12 41.33 245.12 29.76 246.93 27.76 258.48 25.95 246.9 14.4 244.91 25.98 243.09 27.98 231.55 29.79 243.12"/></g></g></svg>