<svg xmlns="http://www.w3.org/2000/svg" viewBox="0 0 256.89 434.07"><defs><style>.cls-1,.cls-6{fill:none;}.cls-1{stroke:#fcf3ca;}.cls-1,.cls-4,.cls-6{stroke-miterlimit:10;}.cls-2{fill:#fcf3ca;}.cls-3,.cls-4{fill:#fff;}.cls-4,.cls-6{stroke:#fbec87;}.cls-5{fill:#fbec87;}</style></defs><g id="Layer_2" data-name="Layer 2"><g id="Layer_1-2" data-name="Layer 1"><polygon class="cls-1" points="42.75 117.65 64.06 121.17 42.75 124.67 39.23 145.97 35.73 124.66 14.43 121.14 35.73 117.64 39.26 96.34 42.75 117.65"/><polygon class="cls-2" points="236.98 182.9 240.81 175.87 244.67 182.89 251.7 186.72 244.68 190.57 240.85 197.61 236.99 190.59 229.96 186.76 236.98 182.9"/><circle class="cls-3" cx="1.63" cy="176.55" r="1.63"/><circle class="cls-3" cx="140.42" cy="40.5" r="1.63"/><circle class="cls-3" cx="116.47" cy="158.1" r="1.63"/><circle class="cls-3" cx="1.63" cy="409.31" r="1.63"/><circle class="cls-3" cx="239.2" cy="5.39" r="1.63"/><circle class="cls-3" cx="80.38" cy="10.32" r="1.12"/><circle class="cls-4" cx="3.26" cy="2.13" r="1.63"/><circle class="cls-5" cx="199.73" cy="121.15" r="2.19"/><circle class="cls-2" cx="199.97" cy="365.69" r="1.36"/><polygon class="cls-6" points="134.92 346.8 119.06 344.17 134.92 341.57 137.54 325.71 140.14 341.57 156 344.2 140.14 346.8 137.52 362.65 134.92 346.8"/><polygon class="cls-5" points="14.72 270.38 10.89 277.42 7.04 270.4 0 266.56 7.02 262.71 10.85 255.67 14.71 262.69 21.75 266.53 14.72 270.38"/><circle class="cls-3" cx="253.63" cy="289.86" r="1.63"/><circle class="cls-3" cx="114.84" cy="432.44" r="1.63"/><circle class="cls-3" cx="85.74" cy="233.88" r="1.63"/><circle class="cls-5" cx="47.31" cy="345.28" r="2.19"/><circle class="cls-5" cx="184.8" cy="252.85" r="2.19"/><polygon class="cls-2" points="245.34 409.05 256.89 411.04 245.31 412.86 243.32 424.4 241.51 412.82 229.96 410.83 241.54 409.02 243.53 397.47 245.34 409.05"/></g></g></svg>