<svg xmlns="http://www.w3.org/2000/svg" viewBox="0 0 71.06 33.06"><defs><style>.moon-craters-cls-1{fill:#b5b5b5;}.moon-craters-cls-2,.moon-craters-cls-3,.moon-craters-cls-4{fill:none;stroke:#000;stroke-miterlimit:10;}.moon-craters-cls-2{stroke-width:3px;}.moon-craters-cls-3{stroke-width:2px;}.moon-craters-cls-4{stroke-width:4px;}</style></defs><g id="Layer_2" data-name="Layer 2"><g id="Layer_1-2" data-name="Layer 1"><rect class="moon-craters-cls-1" width="71.06" height="33.06"/><path class="moon-craters-cls-2" d="M6.28,13a3.83,3.83,0,1,1,5.06-2A3.82,3.82,0,0,1,6.28,13Z"/><path class="moon-craters-cls-3" d="M46.92,12.33a2.38,2.38,0,1,1,3.14-1.21A2.38,2.38,0,0,1,46.92,12.33Z"/><path class="moon-craters-cls-2" d="M61.63,18.09c.06,2.52-4.15,6.73-6.4,7S51.09,23.5,51,21s4.15-6.73,6.41-7S61.57,15.56,61.63,18.09Z"/><path class="moon-craters-cls-4" d="M24.35,26.52a7.64,7.64,0,1,1,10.09-3.9A7.65,7.65,0,0,1,24.35,26.52Z"/></g></g></svg>