<svg xmlns="http://www.w3.org/2000/svg" viewBox="0 0 36.19 43.45"><defs><style>.nom-cls-1{fill:#8EC099;}.nom-cls-2,.nom-cls-4{fill:#fff;}.nom-cls-3{fill:#7CA785;}.nom-cls-4{opacity:0.15;}</style></defs><g id="Layer_2" data-name="Layer 2"><g id="Layer_1-2" data-name="Layer 1"><path class="nom-cls-1" d="M18.43,0C1.64,0,0,12.5,0,17.91S2,32.19,2,34.08c1,8.69,12.19,9.37,16.08,9.37s15.52-1.37,16.11-8.67c.09-1,2-9,2-17C36.18,16.49,37.15,0,18.43,0Z"/><circle cx="29.17" cy="13.24" r="2.93" transform="translate(9.61 38.61) rotate(-76.77)"/><path class="nom-cls-2" d="M31,12.35a1.08,1.08,0,1,1-1.08-1.08A1.07,1.07,0,0,1,31,12.35Z"/><circle cx="7.46" cy="13.27" r="2.93"/><path class="nom-cls-2" d="M9.3,12.38A1.08,1.08,0,1,1,8.22,11.3,1.07,1.07,0,0,1,9.3,12.38Z"/><path class="nom-cls-2" d="M33.7,21.3c-8.42,2.84-23.31,2.48-31.2-.05.4-.69.61-1,1.06-1.71.26.51.39.76.64,1.28.57-.66.86-1,1.48-1.62A10.19,10.19,0,0,0,6.45,21l1.43-1.59a10.18,10.18,0,0,1,.79,2c.52-.8.8-1.19,1.38-2a11,11,0,0,0,1,2.19c.59-.87.9-1.3,1.55-2.15a7.61,7.61,0,0,0,1.08,2.26l1.45-2s.51,1.32.93,2.19l1.23-2a7.26,7.26,0,0,0,1.09,2.05l1.06-2a16.37,16.37,0,0,0,1.09,2l1.11-2.24a10,10,0,0,0,1.26,2.22L24,19.55a8.12,8.12,0,0,0,1.17,2c.33-.73.5-1.09.85-1.81.56.64.82,1,1.33,1.62a6.87,6.87,0,0,1,.71-1.83s.9,1.4,1.5,1.64c0,0,.4-.88.72-1.73,0,0,.86.85,1.51,1.47a8.88,8.88,0,0,0,.77-1.24C33,20.34,33.27,20.66,33.7,21.3Z"/><path d="M32.35,9.07c-.59-.16-1.22-.35-1.89-.6s-1.36-.56-1.94-.84l.4-1a8.88,8.88,0,0,0,1.72,1.19,9.06,9.06,0,0,0,1.91.75Z"/><path d="M4,9.71a18.36,18.36,0,0,0,1.73-1C6.38,8.34,7,7.92,7.46,7.53l-.59-.94A9,9,0,0,1,5.42,8.11,8.79,8.79,0,0,1,3.71,9.23Z"/><path class="nom-cls-3" d="M19.1,42.47C15.21,42.47,4,41.79,3,33.1c0-1.89-2-10.76-2-16.17C1,13.77,1.57,8.2,5.37,4.1.65,8.24,0,14.49,0,17.91c0,5.42,2,14.28,2,16.17,1,8.69,12.2,9.37,16.09,9.37,3.08,0,11-.86,14.46-4.83C28.74,41.76,21.91,42.47,19.1,42.47Z"/><circle class="nom-cls-4" cx="7.73" cy="13.07" r="2.47"/><circle class="nom-cls-4" cx="29.37" cy="13.07" r="2.47"/></g></g></svg>