<svg xmlns="http://www.w3.org/2000/svg" viewBox="0 0 1600 397.18"><defs><style>.rocket-trail-cls-1{fill:#41bdd7;}.rocket-trail-cls-2{fill:#f9f9f9;}</style></defs><g id="Layer_2" data-name="Layer 2"><g id="Layer_1-2" data-name="Layer 1"><path class="rocket-trail-cls-1" d="M1600,380.55c-140.56-72.36-281.29-122-427.62-152.59C1038.94,196.84,832.49,165.69,802.94,7.9c-2.15-10.64-5.25-10.43-7.37,0-43,194.15-325,196.43-483.17,247.8C203.91,282.9,82.65,336.68,0,382.34v14.84l799.65-227,800.35,227Z"/><path class="rocket-trail-cls-2" d="M1600,397.18c-122.82-80.07-314.32-137.39-458.79-169.86-151.36-39.45-310.54-63-341.59-218.22a.5.5,0,0,0-1,0c-31.15,155.23-190.1,178.72-341.59,218.22C311.56,260,129.36,316.24,0,397.18Z"/></g></g></svg>