<svg xmlns="http://www.w3.org/2000/svg" viewBox="0 0 64.55 243.91"><defs><style>.cls-1{fill:#f3775b;}.cls-2{fill:#2b233f;}.cls-3{fill:#fbec87;}</style></defs><g id="Layer_2" data-name="Layer 2"><g id="Layer_1-2" data-name="Layer 1"><path class="cls-1" d="M33.15,3.35,32.27,0C20.55,16.86,15.14,36.85,14.87,57.38v86.11A53.32,53.32,0,0,0,0,181.11l.42,62.8,14.44-36.27v.13l17.41-15.85,1.61,0Z"/><path class="cls-1" d="M49.23,206.49l14.9,37.42.41-62.8a53.24,53.24,0,0,0-15-37.8Z"/><path class="cls-2" d="M32.27,0C44,16.86,49.4,36.85,49.68,57.38V207.77L32.27,191.92Z"/><path class="cls-2" d="M38.45,94.11a6.37,6.37,0,1,1-6.28-6.45,6.37,6.37,0,0,1,6.28,6.45"/><path class="cls-2" d="M38.64,79.82a6.37,6.37,0,1,1-6.28-6.45,6.38,6.38,0,0,1,6.28,6.45"/><path class="cls-2" d="M38.83,65.52a6.37,6.37,0,1,1-6.28-6.45,6.36,6.36,0,0,1,6.28,6.45"/><path class="cls-3" d="M29.84,68a3.64,3.64,0,0,0,2.58,1.11,3.69,3.69,0,0,0,3.71-3.61h0a3.67,3.67,0,0,0-3.62-3.71h0A3.66,3.66,0,0,0,29.84,68Z"/><path class="cls-3" d="M29.84,82.29a3.68,3.68,0,0,0,2.58,1.11h0a3.68,3.68,0,0,0,3.67-3.62h0a3.65,3.65,0,0,0-1-2.6,3.6,3.6,0,0,0-2.58-1.11h0a3.66,3.66,0,0,0-2.56,1,3.61,3.61,0,0,0-1.11,2.57A3.67,3.67,0,0,0,29.84,82.29Z"/><path class="cls-3" d="M29.84,96.58a3.64,3.64,0,0,0,2.58,1.11h0a3.67,3.67,0,0,0,3.66-3.61h0a3.67,3.67,0,0,0-3.62-3.72h0a3.66,3.66,0,0,0-2.63,6.22Z"/></g></g></svg>