<svg xmlns="http://www.w3.org/2000/svg" viewBox="0 0 64.55 243.91"><defs><style>.rocket-cls-1{fill:#f3775b;}.rocket-cls-2{fill:#2b233f;}</style></defs><g id="Layer_2" data-name="Layer 2"><g id="Layer_1-2" data-name="Layer 1"><path class="rocket-cls-1" d="M33.15,3.35,32.27,0C20.55,16.86,15.14,36.85,14.87,57.38v86.11A53.32,53.32,0,0,0,0,181.11l.42,62.8,14.44-36.27v.13l17.41-15.85,1.61,0Z"/><path class="rocket-cls-1" d="M49.23,206.49l14.9,37.42.41-62.8a53.24,53.24,0,0,0-15-37.8Z"/><path class="rocket-cls-2" d="M32.27,0C44,16.86,49.4,36.85,49.68,57.38V207.77L32.27,191.92Z"/><path class="rocket-cls-2" d="M38.45,94.11a6.37,6.37,0,1,1-6.28-6.45,6.37,6.37,0,0,1,6.28,6.45"/><path class="rocket-cls-2" d="M38.64,79.82a6.37,6.37,0,1,1-6.28-6.45,6.38,6.38,0,0,1,6.28,6.45"/><path class="rocket-cls-2" d="M38.83,65.52a6.37,6.37,0,1,1-6.28-6.45,6.36,6.36,0,0,1,6.28,6.45"/></g></g></svg>