<svg xmlns="http://www.w3.org/2000/svg" viewBox="0 0 1600.88 1122.08"><defs><style>.cls-star-bg-1,.cls-star-bg-5,.cls-star-bg-7{fill:none;}.cls-star-bg-2,.cls-star-bg-6{fill:#fff;}.cls-star-bg-3{fill:#fcf3ca;}.cls-star-bg-4{fill:#fbec87;}.cls-star-bg-5,.cls-star-bg-6{stroke:#fbec87;}.cls-star-bg-5,.cls-star-bg-6,.cls-star-bg-7{stroke-miterlimit:10;}.cls-star-bg-7{stroke:#fcf3ca;}</style></defs><g id="Layer_2" data-name="Layer 2"><g id="Layer_1-2" data-name="Layer 1"><g id="Layer_2-2" data-name="Layer 2"><g id="Layer_1-2-2" data-name="Layer 1-2"><g id="Layer_2-2-2" data-name="Layer 2-2"><g id="Layer_1-2-2-2" data-name="Layer 1-2-2"><g id="Layer_2-2-2-2" data-name="Layer 2-2-2"><g id="Layer_1-2-2-2-2" data-name="Layer 1-2-2-2"><rect class="cls-star-bg-1" width="1600.88" height="1122.08"/><polygon class="cls-star-bg-2" points="413.39 602.33 382.32 597.19 413.4 592.09 418.53 561.02 423.63 592.1 454.7 597.24 423.63 602.33 418.49 633.4 413.39 602.33"/><polygon class="cls-star-bg-3" points="64.48 486.66 57.62 499.26 50.72 486.68 38.12 479.82 50.69 472.92 57.55 460.32 64.46 472.9 77.05 479.76 64.48 486.66"/><circle class="cls-star-bg-2" cx="485.85" cy="498.02" r="2.92"/><circle class="cls-star-bg-2" cx="237.36" cy="741.61" r="2.92"/><circle class="cls-star-bg-2" cx="280.24" cy="531.07" r="2.92"/><circle class="cls-star-bg-2" cx="432.36" cy="81.3" r="2.19"/><circle class="cls-star-bg-2" cx="60.5" cy="804.47" r="2.92"/><circle class="cls-star-bg-2" cx="1362.87" cy="912.96" r="2"/><circle class="cls-star-bg-4" cx="131.17" cy="597.21" r="3.93"/><circle class="cls-star-bg-3" cx="130.75" cy="159.4" r="2.43"/><polygon class="cls-star-bg-4" points="246.42 194.02 269.96 197.91 246.41 201.78 242.52 225.32 238.66 201.77 215.11 197.88 238.66 194.01 242.56 170.47 246.42 194.02"/><circle class="cls-star-bg-2" cx="34.85" cy="296.31" r="2.92" transform="translate(-261.98 326.36) rotate(-89.08)"/><circle class="cls-star-bg-2" cx="283.16" cy="39.89" r="2.92"/><circle class="cls-star-bg-2" cx="335.27" cy="395.38" r="1.75"/><circle class="cls-star-bg-3" cx="429.44" cy="207.08" r="2.36"/><circle class="cls-star-bg-4" cx="157.9" cy="361.42" r="3.93"/><circle class="cls-star-bg-2" cx="485.85" cy="937.76" r="2.92"/><circle class="cls-star-bg-3" cx="130.75" cy="1015.86" r="2.43"/><polygon class="cls-star-bg-5" points="247.22 1049.68 275.61 1054.38 247.21 1059.03 242.52 1087.42 237.86 1059.03 209.47 1054.33 237.86 1049.67 242.56 1021.28 247.22 1049.68"/><circle class="cls-star-bg-2" cx="329.43" cy="887.5" r="1.75"/><circle class="cls-star-bg-4" cx="404.06" cy="1052.4" r="3.93"/><polygon class="cls-star-bg-3" points="636.78 1057.74 616.11 1054.16 636.84 1050.92 640.41 1030.25 643.65 1050.97 664.33 1054.55 643.6 1057.79 640.03 1078.46 636.78 1057.74"/><polygon class="cls-star-bg-3" points="1054.52 527.13 1061.38 514.54 1068.29 527.11 1080.88 533.97 1068.31 540.87 1061.45 553.47 1054.55 540.9 1041.95 534.04 1054.52 527.13"/><circle class="cls-star-bg-2" cx="577.46" cy="356.41" r="2.92"/><circle class="cls-star-bg-2" cx="592.01" cy="212.98" r="2.92"/><circle class="cls-star-bg-2" cx="878.5" cy="333.83" r="2.92"/><circle class="cls-star-bg-2" cx="486.36" cy="778.59" r="2.92"/><circle class="cls-star-bg-2" cx="1031.15" cy="261.15" r="1.75"/><circle class="cls-star-bg-2" cx="730.96" cy="983.83" r="2.92"/><circle class="cls-star-bg-2" cx="1002.81" cy="841.72" r="2.92"/><circle class="cls-star-bg-2" cx="594.01" cy="912.96" r="2"/><circle class="cls-star-bg-6" cx="865.79" cy="944.92" r="2.92"/><circle class="cls-star-bg-4" cx="986.26" cy="1060.56" r="3.93"/><circle class="cls-star-bg-3" cx="931.74" cy="720.92" r="1.46"/><circle class="cls-star-bg-2" cx="780.15" cy="814.55" r="2.92"/><circle class="cls-star-bg-2" cx="728.04" cy="459.06" r="2.92"/><circle class="cls-star-bg-4" cx="659.25" cy="658.5" r="3.93"/><circle class="cls-star-bg-4" cx="905.41" cy="493.02" r="3.93"/><polygon class="cls-star-bg-7" points="1484.75 881.68 1460.98 877.75 1484.76 873.86 1488.68 850.09 1492.58 873.86 1516.35 877.79 1492.58 881.69 1488.65 905.46 1484.75 881.68"/><circle class="cls-star-bg-2" cx="1556.01" cy="778.59" r="2.92"/><circle class="cls-star-bg-2" cx="1307.52" cy="1022.18" r="2.92"/><circle class="cls-star-bg-2" cx="1350.4" cy="811.63" r="1.75"/><circle class="cls-star-bg-2" cx="1104.83" cy="168.59" r="2.92"/><circle class="cls-star-bg-2" cx="1130.66" cy="1085.04" r="2.92"/><circle class="cls-star-bg-2" cx="1415.02" cy="1076.21" r="2"/><circle class="cls-star-bg-6" cx="1553.09" cy="1090.87" r="2.92"/><circle class="cls-star-bg-4" cx="1201.32" cy="877.77" r="3.93"/><circle class="cls-star-bg-2" cx="1258.33" cy="379.28" r="2.92"/><circle class="cls-star-bg-2" cx="1530.18" cy="237.17" r="2.92"/><circle class="cls-star-bg-2" cx="1121.38" cy="308.42" r="2"/><circle class="cls-star-bg-6" cx="1393.16" cy="340.37" r="2.92"/><circle class="cls-star-bg-4" cx="938.1" cy="633.4" r="2.37"/><circle class="cls-star-bg-4" cx="1513.63" cy="456.02" r="3.93"/><circle class="cls-star-bg-3" cx="1459.93" cy="90.49" r="2.43"/><polygon class="cls-star-bg-5" points="106.32 865.15 77.93 860.45 106.33 855.8 111.02 827.4 115.68 855.8 144.07 860.5 115.68 865.15 110.98 893.54 106.32 865.15"/><polygon class="cls-star-bg-4" points="1526.2 647.7 1533.06 635.11 1539.96 647.68 1552.56 654.54 1539.99 661.44 1533.13 674.04 1526.22 661.47 1513.63 654.61 1526.2 647.7"/><circle class="cls-star-bg-2" cx="1307.52" cy="210" r="2.92"/><circle class="cls-star-bg-2" cx="1405.42" cy="675.94" r="2.92"/><circle class="cls-star-bg-4" cx="1186.62" cy="53.95" r="3.93"/><circle class="cls-star-bg-3" cx="1228.06" cy="641.98" r="3.93"/><polygon class="cls-star-bg-3" points="1463.37 192.24 1484.04 195.81 1463.32 199.05 1459.74 219.73 1456.5 199 1435.82 195.43 1456.55 192.18 1460.12 171.51 1463.37 192.24"/><polygon class="cls-star-bg-4" points="1094.54 755.23 1115.21 758.8 1094.48 762.04 1090.91 782.72 1087.66 761.99 1066.99 758.42 1087.72 755.17 1091.29 734.5 1094.54 755.23"/></g></g></g></g></g></g></g></g></svg>