<svg xmlns="http://www.w3.org/2000/svg" viewBox="0 0 306.49 32.98"><defs><style>.cls-1-support{fill:#41bdd7;}</style></defs><g id="Layer_2" data-name="Layer 2"><g id="Layer_1-2" data-name="Layer 1"><path class="cls-1-support" d="M26.14,11.25C23,8.5,17,6.66,12.87,6.66c-3.42,0-4.32,1-4.32,2.43,0,1.66,2.25,2.25,9,3.33,8,1.3,10.8,4.81,10.8,9.63C28.3,28,24.07,33,14.17,33,4.54,33,0,28.21,0,23.76A4.64,4.64,0,0,1,3.19,19c.77,3.6,5.54,6.66,12,6.66,3.37,0,4.72-.81,4.72-2.52,0-2.39-3-2.88-9.72-4C2.92,17.91.09,14.67.09,9.9.09,4.32,5.35,0,12.69,0c5.44,0,8.41,1.31,10.12,1.31A3.78,3.78,0,0,0,25.24.58L26.55,11Z"/><path class="cls-1-support" d="M53.23,6.7c0-3.24-1.17-4.81-3-5.53V.72H65.47v.45c-1.62.67-3.15,2.16-3.15,5.53V18.85c-.18,9.09-6.66,14.09-15.39,14.09S31.81,28,31.81,18.85V6.7c0-3.05-1.3-4.76-3.06-5.53V.72H44v.4c-1.94.68-3.2,2.34-3.2,5.58V18.9c0,3.87,1.85,6.84,6.12,6.84s6.3-3,6.3-6.84Z"/><path class="cls-1-support" d="M66.38,32.22v-.45c2.11-.9,3.1-2.48,3.1-5.49V6.66c0-3-1-4.59-3.1-5.49V.72h19c9.31,0,13.5,5.22,13.5,11.52s-5,10.53-13,10.53H78.48v3.51c0,3,1,4.59,3.1,5.49v.45ZM85.27,15.57c2.79,0,4.59-1.22,4.59-3.65,0-2.61-1.8-4-4.59-4H78.48v7.65Z"/><path class="cls-1-support" d="M99.81,32.22v-.45c2.11-.9,3.1-2.48,3.1-5.49V6.66c0-3-1-4.59-3.1-5.49V.72h19c9.32,0,13.5,5.22,13.5,11.52s-5,10.53-13,10.53h-7.43v3.51c0,3,1,4.59,3.11,5.49v.45Zm18.9-16.65c2.79,0,4.59-1.22,4.59-3.65,0-2.61-1.8-4-4.59-4h-6.8v7.65Z"/><path class="cls-1-support" d="M151.2,33c-9.18,0-17.51-6.12-17.51-16.47C133.69,5.71,142,0,151.2,0s17.55,5.71,17.55,16.51C168.75,26.86,160.42,33,151.2,33Zm8.55-16.47c0-5.89-3.74-9.31-8.55-9.31s-8.51,3.42-8.51,9.31,3.74,9.27,8.51,9.27S159.75,22.36,159.75,16.51Z"/><path class="cls-1-support" d="M170.1,32.22v-.45c2.11-.9,3.1-2.48,3.1-5.49V6.66c0-2.66-.81-4.5-3.1-5.49V.72H190c8.87,0,13.5,4.68,13.5,10.66,0,5.22-4,9.32-10.08,9.32a5.74,5.74,0,0,1-.9-.05c1.94,1.26,3.69,2.39,5.76,2.39a2.71,2.71,0,0,0,2.39-1.35,5,5,0,0,1,3,4.54c0,3.56-2.25,6.62-7.16,6.62-7.47,0-9.22-10.94-14.31-12.11v5.54c0,3,1,4.59,3.11,5.49v.45Zm12.1-24.3v7.2h7.7c2.79,0,4.63-1.22,4.63-3.51,0-2.52-1.84-3.69-4.63-3.69Z"/><path class="cls-1-support" d="M210.46,32.22v-.45c2.12-.9,3.11-2.48,3.11-5.49V7.92h-1.94c-3.55,0-5,.27-6.7,1.57l-.36-.18L206.28.18A17.4,17.4,0,0,0,211,.72h14.22a17.49,17.49,0,0,0,4.68-.54l1.71,9.13-.36.18c-1.67-1.3-3.15-1.57-6.71-1.57h-1.93V26.28c0,3,1,4.59,3.1,5.49v.45Z"/><path class="cls-1-support" d="M265.5,6.7c0-3.24-1.17-4.81-3-5.53V.72h15.26v.45c-1.62.67-3.15,2.16-3.15,5.53V18.85c-.18,9.09-6.66,14.09-15.39,14.09S244.08,28,244.08,18.85V6.7c0-3.05-1.31-4.76-3.06-5.53V.72h15.25v.4c-1.93.68-3.19,2.34-3.19,5.58V18.9c0,3.87,1.84,6.84,6.12,6.84s6.3-3,6.3-6.84Z"/><path class="cls-1-support" d="M304.33,11.25c-3.1-2.75-9.13-4.59-13.27-4.59-3.42,0-4.32,1-4.32,2.43,0,1.66,2.25,2.25,8.95,3.33,8,1.3,10.8,4.81,10.8,9.63C306.49,28,302.26,33,292.36,33c-9.63,0-14.17-4.77-14.17-9.22A4.64,4.64,0,0,1,281.38,19c.77,3.6,5.54,6.66,12,6.66,3.37,0,4.72-.81,4.72-2.52,0-2.39-3-2.88-9.72-4-7.29-1.21-10.12-4.45-10.12-9.22,0-5.58,5.26-9.86,12.6-9.86,5.44,0,8.41,1.31,10.12,1.31a3.78,3.78,0,0,0,2.43-.77L304.74,11Z"/></g></g></svg>