<svg xmlns="http://www.w3.org/2000/svg" viewBox="0 0 495.85 427.75"><defs><style>.cls-1{fill:#2c3234;}.cls-2{fill:#fcf3ca;}.cls-3{fill:#fff;}.cls-4{fill:#fbec87;}.cls-5{fill:none;stroke:#fbec87;stroke-miterlimit:10;}</style></defs><g id="Layer_2" data-name="Layer 2"><g id="Layer_1-2" data-name="Layer 1"><path class="cls-1" d="M473.87,96.76c83.85,84.66-93.39,183.54-177.23,242.39s-205.79,141-274.25,43.44,37.07-218.06,89.2-301.47C178.84-26.47,345.61-32.73,473.87,96.76Z"/><g id="Layer_1-2-2" data-name="Layer 1-2"><polygon class="cls-2" points="48.8 316.53 43.22 326.77 37.59 316.54 27.35 310.96 37.58 305.33 43.16 295.09 48.78 305.32 59.03 310.9 48.8 316.53"/><circle class="cls-3" cx="224.43" cy="352.67" r="2.38"/><circle class="cls-3" cx="78.8" cy="147.14" r="1.93" transform="translate(-84.86 179.92) rotate(-73.15)"/><circle class="cls-4" cx="103.09" cy="406.51" r="3.19"/><polygon class="cls-5" points="197.54 77.66 220.66 81.48 197.54 85.28 193.72 108.38 189.94 85.27 166.82 81.45 189.94 77.66 193.75 54.54 197.54 77.66"/><polygon class="cls-3" points="427.05 85.78 430.69 79.1 434.35 85.77 441.04 89.41 434.37 93.08 430.73 99.76 427.06 93.09 420.38 89.45 427.05 85.78"/><circle class="cls-3" cx="269.22" cy="242.21" r="2.38"/><circle class="cls-2" cx="308.37" cy="43.92" r="3.19"/><circle class="cls-4" cx="124.85" cy="214.58" r="3.19"/></g></g></g></svg>