<svg xmlns="http://www.w3.org/2000/svg" xmlns:xlink="http://www.w3.org/1999/xlink" viewBox="0 0 294.55 565.26"><defs><style>.cls-1,.cls-7{fill:none;}.cls-2{fill:#2c3234;}.cls-3{fill:#fbec87;}.cls-4{fill:#fff;}.cls-5{fill:#fcf3ca;}.cls-6{clip-path:url(#clip-path);}.cls-7{stroke:#fbec87;stroke-miterlimit:10;}</style><clipPath id="clip-path" transform="translate(0 -6.09)"><path class="cls-1" d="M195.74,6.42c139.25-43.25-1.06,140.94-5.82,287.77S387.36,566.72,241.65,562,3.38,404.39,3.38,257.49C3.38,122.47,97.8-2.83,195.74,6.42Z"/></clipPath></defs><g id="Layer_2" data-name="Layer 2"><g id="Layer_1-2" data-name="Layer 1"><g id="Layer_2-2" data-name="Layer 2-2"><g id="Layer_1-2-2" data-name="Layer 1-2-2"><path class="cls-2" d="M195.74,6.42c134-8.21-1.06,140.94-5.82,287.77S387.44,562,241.65,562C62.5,562-3.17,424.61,1.61,277.78S73.09,13.93,195.74,6.42Z" transform="translate(0 -6.09)"/><polygon class="cls-3" points="219.05 31.91 214.67 39.61 210.56 31.77 202.87 27.39 210.71 23.28 215.08 15.59 219.2 23.43 226.88 27.81 219.05 31.91"/><polygon class="cls-4" points="45.04 420.21 41.87 425.78 38.89 420.1 33.32 416.93 39 413.95 42.17 408.38 45.15 414.06 50.72 417.23 45.04 420.21"/><circle class="cls-3" cx="139.88" cy="521.85" r="2.08"/><circle class="cls-5" cx="33.57" cy="174.42" r="2.05"/><circle class="cls-4" cx="111.92" cy="56.77" r="2.25"/><circle class="cls-3" cx="19.05" cy="383.21" r="1.49"/><g class="cls-6"><polygon class="cls-5" points="241.81 536.71 245.41 515.25 248.88 536.73 270.34 540.33 248.85 543.8 245.25 565.26 241.78 543.78 220.33 540.17 241.81 536.71"/></g><polygon class="cls-7" points="26.52 281.1 24.32 298.77 20.75 281.32 3.08 279.12 20.52 275.55 22.71 257.88 26.3 275.32 43.97 277.51 26.52 281.1"/></g></g></g></g></svg>