<svg xmlns="http://www.w3.org/2000/svg" viewBox="0 0 429.36 437.72"><defs><style>.cls-1{fill:#2c3234;}.cls-2{fill:#fff;}.cls-3{fill:#fcf3ca;}.cls-4{fill:none;stroke:#fcf3ca;stroke-miterlimit:10;}.cls-5{fill:#fbec87;}</style></defs><g id="Layer_2" data-name="Layer 2"><g id="Layer_1-2" data-name="Layer 1"><path class="cls-1" d="M24.55,15.85C68.08-46.33,461.26,88.24,427.29,180.67,381.92,304.11,176.43,464,120.64,434.06,42.18,392-43.06,112.44,24.55,15.85Z"/><g id="Layer_2-2" data-name="Layer 2"><circle class="cls-2" cx="178.19" cy="418.42" r="1.73"/><polygon class="cls-3" points="94.7 402.81 80.84 400.42 94.74 398.24 97.13 384.38 99.3 398.28 113.17 400.68 99.27 402.85 96.88 416.71 94.7 402.81"/><polygon class="cls-4" points="284.33 322.01 260.56 318.08 284.34 314.19 288.26 290.42 292.16 314.19 315.93 318.12 292.16 322.02 288.23 345.79 284.33 322.01"/><circle class="cls-2" cx="370.18" cy="225.54" r="2.5"/><circle class="cls-5" cx="7.46" cy="72.72" r="1.75"/><polygon class="cls-5" points="361.96 117.04 366.14 109.36 370.35 117.03 378.04 121.21 370.37 125.42 366.19 133.1 361.97 125.44 354.29 121.25 361.96 117.04"/><circle class="cls-2" cx="192.17" cy="40.97" r="2.92"/><circle class="cls-2" cx="83.96" cy="6.09" r="2.48"/></g></g></g></svg>