<svg xmlns="http://www.w3.org/2000/svg" viewBox="0 0 472.2 483.83"><defs><style>.cls-1{fill:#2c3234;}.cls-2{fill:none;stroke:#fbec87;stroke-miterlimit:10;}.cls-3{fill:#fcf3ca;}.cls-4{fill:#fbec87;}.cls-5{fill:#fff;}</style></defs><g id="Layer_2" data-name="Layer 2"><g id="Layer_1-2" data-name="Layer 1"><g id="Layer_2-2" data-name="Layer 2"><g id="Layer_1-2-2" data-name="Layer 1-2"><path class="cls-1" d="M43.19,35.54C120-88.4,134.78,142.67,227.44,256.67S555.19,333.06,442.05,425s-280,74.1-372.64-39.91S-13.81,127.54,43.19,35.54Z"/><polygon class="cls-2" points="94.93 103.91 92.5 123.42 88.55 104.16 69.04 101.73 88.3 97.78 90.72 78.27 94.68 97.53 114.19 99.95 94.93 103.91"/><polygon class="cls-3" points="87.57 358.96 92.46 329.78 97.18 358.99 126.36 363.89 97.15 368.6 92.25 397.78 87.53 368.57 58.36 363.67 87.57 358.96"/><polygon class="cls-4" points="355.38 439.68 349.53 449.96 344.04 439.49 333.76 433.63 344.23 428.14 350.08 417.87 355.58 428.34 365.85 434.19 355.38 439.68"/><circle class="cls-3" cx="206.51" cy="413.5" r="3.38"/><circle class="cls-4" cx="66.68" cy="261.83" r="2.25"/><circle class="cls-5" cx="285.19" cy="475.29" r="2.25"/><circle class="cls-5" cx="13.02" cy="131.54" r="1.83"/></g></g></g></g></svg>